<?xml version="1.0" encoding="utf-8"?>
<!-- Generator: Adobe Illustrator 27.5.0, SVG Export Plug-In . SVG Version: 6.00 Build 0)  -->
<svg version="1.1" xmlns="http://www.w3.org/2000/svg" xmlns:xlink="http://www.w3.org/1999/xlink" x="0px" y="0px"
	 viewBox="0 0 500 500" style="enable-background:new 0 0 500 500;" xml:space="preserve">
<g id="BACKGROUND">
	<rect style="fill:#FFFFFF;" width="500" height="500"/>
</g>
<g id="OBJECTS">
	<g>
		<g>
			<linearGradient id="SVGID_1_" gradientUnits="userSpaceOnUse" x1="250" y1="127.7805" x2="250" y2="270.1639">
				<stop  offset="0" style="stop-color:#3B97EF"/>
				<stop  offset="1" style="stop-color:#DA35E9"/>
			</linearGradient>
			<path style="fill:url(#SVGID_1_);" d="M303.461,163.505c-1.392,0.406-2.863,0.628-4.39,0.628c-8.676,0-15.697-7.03-15.697-15.697
				c0-6.25,3.65-11.642,8.93-14.163c-1.185-2.02-4.883-7.57-10.155-8.103c-6.462-0.644-32.124,4.091-32.149,4.095
				c-0.025-0.005-25.687-4.739-32.149-4.095c-5.272,0.533-8.97,6.083-10.155,8.103c5.28,2.521,8.93,7.912,8.93,14.163
				c0,8.668-7.022,15.697-15.698,15.697c-1.527,0-2.998-0.223-4.39-0.628c-0.978,6.115-3.387,22.64-3.037,35.729
				c0.421,16.373,18.958,36.421,18.958,36.421s-4.095,17.884-1.94,23.705c1.352,3.658,7.125,7.904,11.229,10.568l5.018-8.898
				c0,0-3.96-5.932-4.246-11.864c-0.278-5.932,14.624-12.859,14.624-12.859l-6.163-36.333c0,0-9.248,7.873-19.053,1.734
				c-11.443-7.181-8.898-23.976-8.898-23.976L230.9,189.19l10.274-11.459c2.373,5.136,1.602,11.176-1.985,15.551l-4.273,5.212
				l5.932,35.84c0,0,2.687,1.336,9.152,1.543c6.464-0.207,9.151-1.543,9.151-1.543l5.933-35.84l-4.274-5.212
				c-3.587-4.375-4.358-10.415-1.985-15.551L269.1,189.19l27.872-11.459c0,0,2.545,16.795-8.898,23.976
				c-9.805,6.139-19.053-1.734-19.053-1.734l-6.163,36.333c0,0,14.902,6.926,14.624,12.859c-0.286,5.932-4.246,11.864-4.246,11.864
				l5.018,8.898c4.103-2.664,9.877-6.91,11.228-10.568c2.155-5.821-1.94-23.705-1.94-23.705s18.536-20.047,18.958-36.421
				C306.848,186.145,304.439,169.62,303.461,163.505z"/>
			
				<linearGradient id="SVGID_00000054250771432036928000000011563475852531860608_" gradientUnits="userSpaceOnUse" x1="249.9989" y1="238.8574" x2="249.9989" y2="296.7426">
				<stop  offset="0" style="stop-color:#3B97EF"/>
				<stop  offset="1" style="stop-color:#DA35E9"/>
			</linearGradient>
			<path style="fill:url(#SVGID_00000054250771432036928000000011563475852531860608_);" d="M273.999,274.53
				c-0.03,1.12-0.13,2.62-0.42,4.32c-0.84,4.91-3.25,11.43-9.97,14.78c-0.85-3.88-3.65-7.11-3.65-7.11s-0.61,1.35-2.17,3.21
				c-1.55,1.85-4.04,4.23-7.79,6.27c-7.5-4.09-9.95-9.48-9.95-9.48s-2.8,3.23-3.66,7.11c-6.72-3.35-9.13-9.87-9.97-14.78
				c-0.29-1.7-0.39-3.2-0.42-4.32c1.13-0.7,2.29-1.31,3.48-1.84c7.83-3.52,16.55-3.69,20.52-4c3.97,0.31,12.7,0.48,20.53,4
				C271.709,273.23,272.879,273.83,273.999,274.53z"/>
			<path style="opacity:0.2;fill:#42275F;" d="M270.529,272.69c-0.98,3.58-3.26,7.8-8.49,10.1c-0.76-3.02-3.23-5.54-3.23-5.54
				s-0.54,1.05-1.92,2.5c-1.37,1.45-3.58,3.29-6.89,4.89c-6.63-3.19-8.8-7.39-8.8-7.39s-2.48,2.52-3.24,5.54
				c-5.23-2.3-7.51-6.52-8.48-10.1c7.83-3.52,16.55-3.69,20.52-4C253.969,269,262.699,269.17,270.529,272.69z"/>
			
				<linearGradient id="SVGID_00000049941195426600102750000005637355764283875971_" gradientUnits="userSpaceOnUse" x1="249.9989" y1="238.8493" x2="249.9989" y2="296.754">
				<stop  offset="0" style="stop-color:#3B97EF"/>
				<stop  offset="1" style="stop-color:#DA35E9"/>
			</linearGradient>
			<path style="fill:url(#SVGID_00000049941195426600102750000005637355764283875971_);" d="M264.339,251.64c0,0,1.73-4.7-3.46-5.93
				c-5.19-1.24-5.69,10.62-5.69,10.62l6.57-2.54l8.48,15.26c0,0-9.79-6.25-20.24-5.67c-10.45-0.58-20.24,5.67-20.24,5.67l8.48-15.26
				l6.57,2.54c0,0-0.5-11.86-5.69-10.62c-5.19,1.23-3.46,5.93-3.46,5.93l-8.4,2.96c-3.96-9.64,13.34-15.82,13.34-15.82l9.4,1.48
				l9.4-1.48c0,0,17.3,6.18,13.34,15.82L264.339,251.64z"/>
			<path style="fill:#FFFFFF;" d="M259.399,238.78c0,0-3.01,7.46-9.4,7.46c-6.39,0-9.4-7.46-9.4-7.46l9.4,1.48L259.399,238.78z"/>
		</g>
		<path style="fill:#FFFFFF;" d="M259.939,151.76c0,0-1.407-8.34-9.938-9.741v-0.001c0,0-0.001,0-0.001,0c0,0-0.001,0-0.001,0v0.001
			c-8.531,1.401-9.938,9.741-9.938,9.741s-15.403-5.05-15.65-1.773c-0.255,3.284,17.423,12.374,17.423,12.374l8.164,14.922v0.004
			l0.001-0.002l0.001,0.002v-0.004l8.165-14.922c0,0,17.677-9.089,17.423-12.374C275.342,146.71,259.939,151.76,259.939,151.76z"/>
		<g>
			
				<linearGradient id="SVGID_00000088104750926988426020000014464379661432415157_" gradientUnits="userSpaceOnUse" x1="153.1671" y1="126.8926" x2="213.0873" y2="126.8926">
				<stop  offset="0" style="stop-color:#3B97EF"/>
				<stop  offset="1" style="stop-color:#DA35E9"/>
			</linearGradient>
			<path style="fill:url(#SVGID_00000088104750926988426020000014464379661432415157_);" d="M213.087,148.436
				c0,0.797-0.074,1.577-0.222,2.329c-1.088,5.598-6.019,9.829-11.936,9.829c0,0-23.946,0-41.156-13.519
				c-4.932-3.872-6.777-11.48-6.594-20.045c-0.006,0,0-0.006,0-0.006c0.262-11.959,4.482-25.769,9.812-33.832
				c0.831,15.621-0.495,44.151,37.938,43.086C207.643,136.277,213.087,141.722,213.087,148.436z"/>
			
				<linearGradient id="SVGID_00000031925889621738568470000007792356146403170493_" gradientUnits="userSpaceOnUse" x1="173.1539" y1="165.028" x2="173.1539" y2="192.9686">
				<stop  offset="0" style="stop-color:#3B97EF"/>
				<stop  offset="1" style="stop-color:#DA35E9"/>
			</linearGradient>
			<path style="fill:url(#SVGID_00000031925889621738568470000007792356146403170493_);" d="M191.279,168.43
				c-0.62,3.85-1.94,13.28-1.41,21.41c0.05,0.79,0.11,1.56,0.2,2.32c-23.48,3.28-35.35-12.75-35.35-12.75s9.34-17.05,36.87-12.75
				C191.589,166.66,191.469,167.31,191.279,168.43z"/>
			<path style="opacity:0.2;fill:#42275F;" d="M212.865,150.765c-1.088,5.598-6.019,9.829-11.936,9.829c0,0-23.946,0-41.156-13.519
				c-4.932-3.872-6.777-11.48-6.594-20.045C159.87,137.348,176.112,152.764,212.865,150.765z"/>
			<path style="fill:#FFFFFF;" d="M189.06,141.406c0.394,3.549,13.887,5.05,14.897,1.262
				C204.967,138.88,188.555,136.861,189.06,141.406z"/>
			
				<linearGradient id="SVGID_00000002370401362290634700000012933281004300805562_" gradientUnits="userSpaceOnUse" x1="197.897" y1="228.8729" x2="197.897" y2="300.0646">
				<stop  offset="0" style="stop-color:#3B97EF"/>
				<stop  offset="1" style="stop-color:#DA35E9"/>
			</linearGradient>
			<path style="fill:url(#SVGID_00000002370401362290634700000012933281004300805562_);" d="M206.734,239.879
				c0,0-1.768,18.432,0,23.482c1.767,5.05,9.342,7.575,9.342,7.575l-2.989,13.703c0,0-18.725-9.158-33.37-28.6
				c2.777-14.14,11.867-48.191,11.867-48.191S193.605,228.264,206.734,239.879z"/>
			
				<linearGradient id="SVGID_00000124136378550447059920000016952669152041218956_" gradientUnits="userSpaceOnUse" x1="218.2915" y1="184.448" x2="218.2915" y2="209.6906">
				<stop  offset="0" style="stop-color:#3B97EF"/>
				<stop  offset="1" style="stop-color:#DA35E9"/>
			</linearGradient>
			<path style="fill:url(#SVGID_00000124136378550447059920000016952669152041218956_);" d="M210.368,187.153
				c0,0,10.498,1.282,15.848,8.778C221.077,201.549,211.421,199.091,210.368,187.153z"/>
		</g>
		<g>
			
				<linearGradient id="SVGID_00000091719225360301334550000007413158153678663560_" gradientUnits="userSpaceOnUse" x1="364.6694" y1="126.8926" x2="424.5896" y2="126.8926" gradientTransform="matrix(-1 0 0 1 711.5023 0)">
				<stop  offset="0" style="stop-color:#3B97EF"/>
				<stop  offset="1" style="stop-color:#DA35E9"/>
			</linearGradient>
			<path style="fill:url(#SVGID_00000091719225360301334550000007413158153678663560_);" d="M286.913,148.436
				c0,0.797,0.074,1.577,0.222,2.329c1.088,5.598,6.019,9.829,11.936,9.829c0,0,23.946,0,41.156-13.519
				c4.931-3.872,6.777-11.48,6.594-20.045c0.006,0,0-0.006,0-0.006c-0.262-11.959-4.482-25.769-9.812-33.832
				c-0.831,15.621,0.496,44.151-37.938,43.086C292.357,136.277,286.913,141.722,286.913,148.436z"/>
			
				<linearGradient id="SVGID_00000183935947400791813710000000503528014503860124_" gradientUnits="userSpaceOnUse" x1="326.8491" y1="165.028" x2="326.8491" y2="192.9686">
				<stop  offset="0" style="stop-color:#3B97EF"/>
				<stop  offset="1" style="stop-color:#DA35E9"/>
			</linearGradient>
			<path style="fill:url(#SVGID_00000183935947400791813710000000503528014503860124_);" d="M345.279,179.41
				c0,0-11.87,16.03-35.35,12.75c0.09-0.76,0.15-1.53,0.2-2.32c0.53-8.13-0.78-17.56-1.41-21.41c-0.18-1.12-0.3-1.77-0.3-1.77
				C335.939,162.36,345.279,179.41,345.279,179.41z"/>
			<path style="opacity:0.2;fill:#42275F;" d="M189.869,189.84c-12.36-2.04-18.59-10.46-18.59-10.46s5.29-9.64,20-10.95
				C190.659,172.28,189.339,181.71,189.869,189.84z"/>
			<path style="opacity:0.2;fill:#42275F;" d="M328.729,179.38c0,0-6.23,8.43-18.6,10.46c0.53-8.13-0.78-17.56-1.41-21.41
				C323.439,169.74,328.729,179.38,328.729,179.38z"/>
			<path style="opacity:0.2;fill:#42275F;" d="M287.135,150.765c1.088,5.598,6.019,9.829,11.936,9.829c0,0,23.946,0,41.156-13.519
				c4.931-3.872,6.777-11.48,6.594-20.045C340.129,137.348,323.888,152.764,287.135,150.765z"/>
			<path style="fill:#FFFFFF;" d="M310.94,141.406c-0.394,3.549-13.887,5.05-14.897,1.262
				C295.033,138.88,311.445,136.861,310.94,141.406z"/>
			
				<linearGradient id="SVGID_00000178185890966969632570000006076963944517486745_" gradientUnits="userSpaceOnUse" x1="302.103" y1="228.8729" x2="302.103" y2="300.0646">
				<stop  offset="0" style="stop-color:#3B97EF"/>
				<stop  offset="1" style="stop-color:#DA35E9"/>
			</linearGradient>
			<path style="fill:url(#SVGID_00000178185890966969632570000006076963944517486745_);" d="M293.266,239.879
				c0,0,1.768,18.432,0,23.482c-1.767,5.05-9.342,7.575-9.342,7.575l2.989,13.703c0,0,18.725-9.158,33.37-28.6
				c-2.778-14.14-11.867-48.191-11.867-48.191S306.395,228.264,293.266,239.879z"/>
			<path style="opacity:0.2;fill:#42275F;" d="M206.734,239.879c0,0-1.768,18.432,0,23.482c1.767,5.05,9.342,7.575,9.342,7.575
				l-2.989,13.703c0,0-18.725-9.158-33.37-28.6c2.777-14.14,11.867-48.191,11.867-48.191S193.605,228.264,206.734,239.879z"/>
			<path style="opacity:0.2;fill:#42275F;" d="M293.266,239.879c0,0,1.768,18.432,0,23.482c-1.767,5.05-9.342,7.575-9.342,7.575
				l2.989,13.703c0,0,18.725-9.158,33.37-28.6c-2.778-14.14-11.867-48.191-11.867-48.191S306.395,228.264,293.266,239.879z"/>
			
				<linearGradient id="SVGID_00000067232692393533148070000004371688679294743474_" gradientUnits="userSpaceOnUse" x1="281.7084" y1="184.448" x2="281.7084" y2="209.6906">
				<stop  offset="0" style="stop-color:#3B97EF"/>
				<stop  offset="1" style="stop-color:#DA35E9"/>
			</linearGradient>
			<path style="fill:url(#SVGID_00000067232692393533148070000004371688679294743474_);" d="M289.632,187.153
				c0,0-10.498,1.282-15.848,8.778C278.923,201.549,288.579,199.091,289.632,187.153z"/>
		</g>
	</g>
</g>
<g id="TEXTS">
	<g>
		
			<text transform="matrix(1 0 0 1 181.7957 354.7008)" style="fill:#2B2353; font-family:'Montserrat-ExtraBold'; font-size:63.9529px;">bull</text>
	</g>
	<g>
		
			<text transform="matrix(1 0 0 1 198.4074 386.9629)" style="fill:#1F9EF3; font-family:'Montserrat-Light'; font-size:22.052px; letter-spacing:6;">studio</text>
	</g>
</g>
</svg>
